<?xml version="1.0" encoding="UTF-8"?>
<svg version="1.1" xmlns="http://www.w3.org/2000/svg" width="30" height="25">
<path d="M0 0 C3.23210362 1.40886568 5.07687952 2.37401556 7.4375 5.0625 C8.15366079 8.39238629 8.36612062 11.66224571 8.4375 15.0625 C9.0975 15.0625 9.7575 15.0625 10.4375 15.0625 C9.9425 10.1125 9.9425 10.1125 9.4375 5.0625 C10.4275 4.4025 11.4175 3.7425 12.4375 3.0625 C14.4375 5.0625 14.4375 5.0625 14.57275391 7.12548828 C14.52038574 7.95290527 14.46801758 8.78032227 14.4140625 9.6328125 C14.3625 10.52871094 14.3109375 11.42460937 14.2578125 12.34765625 C14.19335938 13.28480469 14.12890625 14.22195313 14.0625 15.1875 C14.00578125 16.13238281 13.9490625 17.07726562 13.890625 18.05078125 C13.74893861 20.38860661 13.59442111 22.7256478 13.4375 25.0625 C9.1475 25.0625 4.8575 25.0625 0.4375 25.0625 C0.4375 23.0825 0.4375 21.1025 0.4375 19.0625 C-0.2225 19.0625 -0.8825 19.0625 -1.5625 19.0625 C-1.5625 21.0425 -1.5625 23.0225 -1.5625 25.0625 C-5.8525 25.0625 -10.1425 25.0625 -14.5625 25.0625 C-14.81038882 21.77125328 -15.03657381 18.48100309 -15.25 15.1875 C-15.32283203 14.25035156 -15.39566406 13.31320312 -15.47070312 12.34765625 C-15.52548828 11.45175781 -15.58027344 10.55585938 -15.63671875 9.6328125 C-15.69432373 8.80539551 -15.75192871 7.97797852 -15.8112793 7.12548828 C-15.72918213 6.44470215 -15.64708496 5.76391602 -15.5625 5.0625 C-14.5725 4.4025 -13.5825 3.7425 -12.5625 3.0625 C-11.9025 3.7225 -11.2425 4.3825 -10.5625 5.0625 C-10.5859375 7.4453125 -10.5859375 7.4453125 -10.9375 10.1875 C-11.04835938 11.09757813 -11.15921875 12.00765625 -11.2734375 12.9453125 C-11.36882813 13.64398438 -11.46421875 14.34265625 -11.5625 15.0625 C-10.9025 15.0625 -10.2425 15.0625 -9.5625 15.0625 C-9.55863281 14.06669922 -9.55863281 14.06669922 -9.5546875 13.05078125 C-9.24928232 6.07736305 -9.24928232 6.07736305 -7.3359375 3.25 C-4.98781948 1.13067297 -3.17884635 0.07753284 0 0 Z M-3.6875 6.0625 C-4.30625 6.7225 -4.925 7.3825 -5.5625 8.0625 C-3.67590125 10.36912599 -3.67590125 10.36912599 -0.5625 10.375 C0.4275 10.271875 1.4175 10.16875 2.4375 10.0625 C3.0975 9.0725 3.7575 8.0825 4.4375 7.0625 C0.439214 3.55740703 0.439214 3.55740703 -3.6875 6.0625 Z M-6.5625 13.0625 C-6.5625 14.7125 -6.5625 16.3625 -6.5625 18.0625 C-8.2125 18.0625 -9.8625 18.0625 -11.5625 18.0625 C-11.5625 19.3825 -11.5625 20.7025 -11.5625 22.0625 C-9.2525 22.0625 -6.9425 22.0625 -4.5625 22.0625 C-3.9025 20.4125 -3.2425 18.7625 -2.5625 17.0625 C-0.9125 17.3925 0.7375 17.7225 2.4375 18.0625 C2.7675 19.3825 3.0975 20.7025 3.4375 22.0625 C5.7475 22.0625 8.0575 22.0625 10.4375 22.0625 C10.4375 20.7425 10.4375 19.4225 10.4375 18.0625 C8.7875 18.0625 7.1375 18.0625 5.4375 18.0625 C5.4375 16.4125 5.4375 14.7625 5.4375 13.0625 C1.4775 13.0625 -2.4825 13.0625 -6.5625 13.0625 Z " fill="#FFFFFF" transform="translate(15.5625,-0.0625)"/>
</svg>
